<svg width="64" height="64" viewBox="0 0 64 64" fill="none" xmlns="http://www.w3.org/2000/svg">
<path d="M36.2867 24.3796C36.2867 24.3796 35.8707 20.5006 32.0219 20.3929C28.1731 20.2852 26.1964 23.3022 26.1964 27.6122C26.1964 31.9221 28.3809 35.3703 32.1258 35.3703C35.8707 35.3703 36.2867 31.0603 36.2867 31.0603L43.4643 31.4913C43.4643 31.4913 43.8869 35.3839 40.8833 38.3538C37.8797 41.3234 34.193 41.8086 31.6184 41.7885C29.0438 41.7679 25.4742 41.8288 22.0222 38.2932C18.5702 34.7576 17.9844 31.323 17.9844 27.9491C17.9844 24.575 18.639 20.1053 22.7435 16.7159C25.533 14.4127 28.3608 13.5641 31.189 13.5641C42.996 13.5641 43.789 24.4538 43.789 24.4538L36.2867 24.3796Z" fill="#A8B9CC"/>
<path d="M23.7751 6.00021H27.7208L27.7271 7.36938H27.5385C27.477 6.87968 27.2996 6.5482 27.0072 6.37524C26.8433 6.2799 26.598 6.2278 26.2716 6.21924V9.79502C26.2716 10.045 26.3137 10.2108 26.3981 10.2925C26.4822 10.3743 26.6577 10.4153 26.9244 10.4153V10.5876H24.5884V10.4153C24.8444 10.4153 25.0145 10.3739 25.0992 10.2909C25.1833 10.2082 25.2253 10.0428 25.2253 9.79494V6.21916C24.9056 6.22772 24.66 6.27982 24.4896 6.37516C24.176 6.55225 23.9989 6.88373 23.9585 7.3693H23.7695L23.7751 6.00021Z" fill="#1B75B3"/>
<path d="M28.5508 10.4155C28.7258 10.407 28.8495 10.3814 28.9219 10.3394C29.0439 10.2684 29.1043 10.1348 29.1043 9.93819V6.64997C29.1043 6.45899 29.0497 6.32957 28.9415 6.26135C28.8751 6.22193 28.745 6.19229 28.5508 6.17235V6H30.7682V6.17235C30.5765 6.18335 30.4427 6.20986 30.3684 6.25127C30.2446 6.32132 30.183 6.45425 30.183 6.64959V8.05818H31.7446V6.64959C31.7446 6.45425 31.6857 6.32254 31.5684 6.25447C31.496 6.21276 31.3605 6.18526 31.1619 6.17235V6H33.3921V6.17235C33.2004 6.18748 33.069 6.2162 32.9987 6.25784C32.881 6.32636 32.8227 6.45677 32.8227 6.6499V9.93812C32.8227 10.1367 32.8878 10.2714 33.0179 10.3425C33.0923 10.3844 33.2175 10.4088 33.3921 10.4154V10.5878H31.1619V10.4154C31.3496 10.4088 31.4831 10.3823 31.5621 10.3358C31.6836 10.2652 31.7446 10.1325 31.7446 9.93842V8.37392H30.183V9.93842C30.183 10.1395 30.2488 10.2753 30.3811 10.3459C30.458 10.3857 30.5872 10.409 30.7682 10.4154V10.5877H28.5508V10.4155Z" fill="#1B75B3"/>
<path d="M34.0938 10.5879V10.4156C34.2818 10.4089 34.4151 10.3824 34.4938 10.336C34.6156 10.2653 34.6765 10.1327 34.6765 9.93857V6.65035C34.6765 6.45272 34.6135 6.32017 34.4879 6.25195C34.4154 6.21062 34.284 6.18404 34.0938 6.17304V6.00107H37.8701V7.36985H37.7101C37.6267 6.93233 37.4856 6.63278 37.2862 6.47144C37.0866 6.31009 36.7236 6.22934 36.1966 6.22934C35.9962 6.22934 35.8688 6.25104 35.8142 6.29405C35.7599 6.33729 35.7321 6.42285 35.7321 6.55096V8.12212C36.1055 8.12655 36.3587 8.05649 36.4912 7.91157C36.6233 7.76733 36.7248 7.50247 36.7949 7.11759H36.9613V9.41167H36.7948C36.7483 9.02496 36.6525 8.75253 36.5088 8.59439C36.3645 8.43656 36.1059 8.35734 35.7328 8.35734V10.0014C35.7328 10.145 35.7684 10.2429 35.84 10.2949C35.9113 10.347 36.0583 10.3729 36.2802 10.3729C36.6982 10.3729 37.0396 10.2888 37.3038 10.1209C37.5683 9.95332 37.8033 9.63826 38.0082 9.17645H38.1903L37.9246 10.5885H34.0938V10.5879H34.0938Z" fill="#1B75B3"/>
<path d="M4 49.085C4.21513 49.0695 4.3602 49.0228 4.43331 48.9442C4.50711 48.8659 4.54401 48.7062 4.54401 48.465V45.4622C4.54401 45.2072 4.5065 45.0461 4.43179 44.9792C4.35715 44.912 4.21299 44.8662 4 44.8422V44.6698H6.10859C6.6675 44.6698 7.09271 44.7638 7.3837 44.9514C7.67538 45.1396 7.82076 45.4622 7.82076 45.9193C7.82076 46.1428 7.76377 46.3521 7.64979 46.5475C7.5355 46.7429 7.34742 46.9004 7.08477 47.0198C6.88637 47.1038 6.68828 47.1549 6.48988 47.1726C6.29117 47.1905 5.99705 47.1991 5.60667 47.1991V48.465C5.60667 48.7149 5.64716 48.8785 5.72829 48.9558C5.80935 49.0332 5.96076 49.0764 6.18269 49.085V49.2574H4.00031V49.085H4ZM6.38713 46.8244C6.594 46.6874 6.69767 46.3922 6.69767 45.9399C6.69767 45.6305 6.64733 45.3804 6.5471 45.1904C6.44687 45.0004 6.2545 44.9056 5.97108 44.9056C5.8409 44.9056 5.74739 44.9214 5.69101 44.9536C5.63433 44.9859 5.60629 45.048 5.60629 45.1406V46.9639C5.99667 46.957 6.25695 46.9106 6.38713 46.8244Z" fill="#1B75B3"/>
<path d="M8.14777 49.085C8.36962 49.0739 8.52111 49.0307 8.60224 48.9558C8.68322 48.8807 8.72379 48.7172 8.72379 48.465V45.4622C8.72379 45.2005 8.67596 45.0304 8.57994 44.9508C8.51592 44.8984 8.37176 44.8621 8.14807 44.8422V44.6698H10.2567C10.694 44.6698 11.0481 44.7172 11.3191 44.8125C11.8439 45.0044 12.106 45.3504 12.106 45.8498C12.106 46.2189 11.9688 46.5096 11.6939 46.7217C11.484 46.8808 11.2611 46.9825 11.0265 47.0264L12.4196 48.959C12.4556 49.012 12.494 49.0464 12.5345 49.0634C12.575 49.0798 12.6252 49.0906 12.685 49.095V49.2573H11.3176L9.78859 47.1362H9.78584V48.465C9.78584 48.7036 9.82419 48.8646 9.90104 48.9473C9.97782 49.0302 10.1315 49.0761 10.3619 49.0849V49.2573H8.14746V49.0849H8.14777V49.085ZM10.7059 46.73C10.8903 46.6122 10.9827 46.3383 10.9827 45.9095C10.9827 45.6469 10.9474 45.4389 10.8772 45.2864C10.7556 45.0278 10.5338 44.8984 10.2116 44.8984C10.0363 44.8984 9.92182 44.9211 9.86728 44.9666C9.81296 45.0124 9.78591 45.0865 9.78591 45.1901V46.9171C10.215 46.9106 10.5215 46.8481 10.7059 46.73Z" fill="#1B75B3"/>
<path d="M17.1076 45.23C17.5577 45.6834 17.7829 46.2667 17.7829 46.9802C17.7829 47.6943 17.558 48.2776 17.1076 48.7303C16.6681 49.1723 16.1189 49.3933 15.4594 49.3933C14.76 49.3933 14.1889 49.1514 13.7476 48.6675C13.3358 48.2124 13.1299 47.6624 13.1299 47.0171C13.1299 46.3055 13.3454 45.7206 13.7763 45.2634C14.2115 44.7994 14.7722 44.5674 15.4594 44.5674C16.1208 44.5672 16.6703 44.7881 17.1076 45.23ZM16.4707 48.26C16.5685 47.9329 16.6178 47.5061 16.6178 46.9802C16.6178 46.2579 16.5139 45.713 16.3054 45.3462C16.0969 44.9791 15.8148 44.796 15.458 44.796C14.9624 44.796 14.6226 45.1016 14.4388 45.7143C14.3425 46.0388 14.2947 46.4612 14.2947 46.9802C14.2947 47.5086 14.3437 47.9348 14.4418 48.26C14.6235 48.8629 14.9621 49.1646 15.4576 49.1646C15.9495 49.1647 16.2869 48.8629 16.4707 48.26Z" fill="#1B75B3"/>
<path d="M19.0313 45.2963C19.4668 44.8215 20.0221 44.5838 20.6983 44.5838C20.9692 44.5838 21.2393 44.6365 21.508 44.7414C21.7766 44.8461 21.9441 44.8982 22.0103 44.8982C22.081 44.8982 22.1374 44.8733 22.1797 44.8224C22.2221 44.7715 22.2577 44.6943 22.2851 44.5905H22.4674V46.178H22.3009C22.1431 45.8336 21.9822 45.5615 21.8179 45.3626C21.5111 44.9958 21.163 44.8127 20.7748 44.8127C20.3524 44.8127 20.0443 45.0027 19.8501 45.3829C19.656 45.7632 19.5591 46.2977 19.5591 46.9872C19.5591 47.5529 19.649 48.0577 19.8293 48.5006C20.0094 48.9434 20.3578 49.165 20.8744 49.165C21.1539 49.165 21.3416 49.1044 21.4376 48.9828C21.4931 48.9146 21.5208 48.8105 21.5208 48.6716V47.9553C21.5208 47.7495 21.4602 47.615 21.3386 47.5506C21.2597 47.5108 21.0996 47.4891 20.8589 47.4843V47.3123H23.105V47.4843C22.8789 47.4931 22.7289 47.5408 22.6555 47.6257C22.582 47.7107 22.5448 47.8704 22.5448 48.1043V48.9696C22.3997 49.0624 22.1651 49.155 21.8409 49.2478C21.5166 49.3405 21.154 49.3876 20.7529 49.3876C20.0258 49.3876 19.4442 49.1499 19.0091 48.6748C18.6037 48.2306 18.4014 47.6734 18.4014 47.0042C18.4008 46.3273 18.6111 45.7585 19.0313 45.2963Z" fill="#1B75B3"/>
<path d="M23.5071 49.085C23.729 49.0739 23.8805 49.0307 23.9615 48.9558C24.0428 48.8807 24.0835 48.7172 24.0835 48.465V45.4622C24.0835 45.2005 24.0353 45.0304 23.9393 44.9508C23.8757 44.8984 23.7314 44.8621 23.5075 44.8422V44.6698H25.6162C26.0536 44.6698 26.4076 44.7172 26.6785 44.8125C27.2034 45.0044 27.4657 45.3504 27.4657 45.8498C27.4657 46.2189 27.3283 46.5096 27.0534 46.7217C26.8434 46.8808 26.6209 46.9825 26.3863 47.0264L27.779 48.959C27.8153 49.012 27.8537 49.0464 27.8942 49.0634C27.9344 49.0798 27.9851 49.0906 28.0444 49.095V49.2573H26.6769L25.148 47.1362H25.1452V48.465C25.1452 48.7036 25.1836 48.8646 25.2603 48.9473C25.3372 49.0302 25.4908 49.0761 25.7215 49.0849V49.2573H23.5068V49.0849H23.5071V49.085ZM26.0655 46.73C26.25 46.6122 26.3423 46.3383 26.3423 45.9095C26.3423 45.6469 26.3073 45.4389 26.2369 45.2864C26.1154 45.0278 25.8934 44.8984 25.5713 44.8984C25.3961 44.8984 25.2818 44.9211 25.227 44.9666C25.1727 45.0124 25.1456 45.0865 25.1456 45.1901V46.9171C25.5743 46.9106 25.8812 46.8481 26.0655 46.73Z" fill="#1B75B3"/>
<path d="M28.3975 49.0852C28.5553 49.0741 28.6823 48.9999 28.7781 48.8628C28.8399 48.7767 28.9286 48.5867 29.0438 48.2924L30.4999 44.5772H30.6823L32.1444 48.1434C32.3091 48.5434 32.4316 48.8013 32.5129 48.9178C32.5939 49.0334 32.7091 49.0895 32.8582 49.0851V49.2574H30.7368V49.0851C30.9504 49.0765 31.0906 49.0573 31.1579 49.0289C31.225 48.9998 31.2585 48.9275 31.2585 48.8098C31.2585 48.7568 31.2414 48.6762 31.2075 48.568C31.1863 48.5039 31.1573 48.4262 31.121 48.3359L30.9543 47.9249H29.4829C29.3869 48.1945 29.3251 48.3704 29.2972 48.4518C29.2394 48.6267 29.2107 48.754 29.2107 48.8335C29.2107 48.9307 29.2739 49.0014 29.3996 49.0454C29.474 49.0696 29.5862 49.0829 29.7355 49.0852V49.2575H28.3982V49.0852H28.3975ZM30.8578 47.6563L30.2272 46.0858H30.1724L29.5805 47.6563H30.8578Z" fill="#1B75B3"/>
<path d="M33.2451 49.0851C33.4948 49.0829 33.6569 49.0374 33.7318 48.9475C33.8062 48.8582 33.8437 48.724 33.8437 48.5447V45.3198C33.8437 45.1354 33.8007 45.0142 33.7153 44.9561C33.6303 44.8977 33.4788 44.8601 33.2613 44.8421V44.6698H34.9122L36.2022 47.8124H36.2565L37.5385 44.6698H39.1907V44.8421C38.9688 44.8601 38.8176 44.9025 38.7363 44.9694C38.6552 45.0363 38.6147 45.2007 38.6147 45.4622V48.465C38.6147 48.7149 38.6552 48.8785 38.7363 48.9558C38.8176 49.0332 38.9688 49.0764 39.1907 49.0849V49.2573H37.0148V49.0849C37.2088 49.0783 37.3548 49.0445 37.4533 48.9842C37.5508 48.9233 37.6002 48.79 37.6002 48.5846V45.2668H37.5524L35.9462 49.2576H35.7704L34.1483 45.3463H34.1189V48.4156C34.1189 48.6417 34.1599 48.8074 34.2412 48.9116C34.3219 49.0161 34.5011 49.0738 34.7788 49.0849V49.2573H33.2459V49.0852H33.2451V49.0851Z" fill="#1B75B3"/>
<path d="M39.5752 49.085C39.8248 49.0827 39.9868 49.0372 40.0615 48.9473C40.1362 48.858 40.1737 48.7238 40.1737 48.5445V45.3196C40.1737 45.1352 40.1308 45.014 40.0456 44.9559C39.9601 44.8975 39.8085 44.8599 39.5909 44.842V44.6696H41.2422L42.5319 47.8122H42.5861L43.8687 44.6695H45.5208V44.8419C45.2989 44.8598 45.1474 44.9022 45.0664 44.9691C44.9853 45.0361 44.9446 45.2005 44.9446 45.4619V48.4647C44.9446 48.7147 44.9853 48.8782 45.0664 48.9555C45.1475 49.0329 45.2989 49.0761 45.5208 49.0847V49.257H43.3448V49.0847C43.5386 49.078 43.6849 49.0442 43.7829 48.984C43.8808 48.923 43.9302 48.7898 43.9302 48.5843V45.2665H43.8824L42.2763 49.2573H42.1004L40.4779 45.346H40.4489V48.4154C40.4489 48.6414 40.4895 48.8071 40.5709 48.9113C40.6519 49.0158 40.8308 49.0736 41.1087 49.0847V49.257H39.5758V49.085H39.5752Z" fill="#1B75B3"/>
<path d="M45.9209 49.0852C46.1068 49.0807 46.2396 49.0574 46.321 49.0157C46.4532 48.945 46.5194 48.8088 46.5194 48.6079V45.3198C46.5194 45.1202 46.4564 44.9864 46.3304 44.9182C46.2536 44.8765 46.1171 44.8513 45.9211 44.8425V44.67H48.2123V44.8425C48.0076 44.8513 47.867 44.8756 47.7899 44.9153C47.6619 44.9833 47.5979 45.118 47.5979 45.3201V48.6082C47.5979 48.7982 47.6492 48.9248 47.7516 48.9895C47.8536 49.0532 48.0073 49.0855 48.2123 49.0855V49.2578H45.9211V49.0852H45.9209Z" fill="#1B75B3"/>
<path d="M48.6152 49.085C48.8584 49.0784 49.0153 49.0303 49.0857 48.941C49.1563 48.8517 49.1912 48.7194 49.1912 48.5445V45.3296C48.9906 45.0973 48.8673 44.9609 48.8202 44.9202C48.7733 44.8795 48.7097 44.8533 48.6282 44.8422V44.6698H50.0173L52.2701 47.5059H52.3022V45.5118C52.3022 45.282 52.2619 45.1181 52.1815 45.0196C52.1004 44.9211 51.9395 44.8624 51.6972 44.8422V44.6698H53.1055V44.8422C52.9006 44.8776 52.7634 44.9246 52.6944 44.9839C52.6249 45.043 52.5906 45.1762 52.5906 45.3823V49.3829H52.4079L49.5246 45.7536H49.4801V48.4148C49.4801 48.6238 49.5075 48.7715 49.563 48.8577C49.6505 48.9982 49.8297 49.0733 50.1009 49.0843V49.2567H48.6158V49.0849H48.6152V49.085Z" fill="#1B75B3"/>
<path d="M54.2577 45.2963C54.6928 44.8215 55.2485 44.5838 55.9248 44.5838C56.1957 44.5838 56.4656 44.6365 56.7348 44.7414C57.0036 44.8461 57.1706 44.8982 57.2371 44.8982C57.3071 44.8982 57.3638 44.8733 57.4065 44.8224C57.4493 44.7715 57.4842 44.6943 57.5119 44.5905H57.6946V46.178H57.5285C57.3703 45.8336 57.2094 45.5615 57.045 45.3626C56.7382 44.9958 56.3898 44.8127 56.0016 44.8127C55.5792 44.8127 55.2711 45.0027 55.0769 45.3829C54.883 45.7632 54.7857 46.2977 54.7857 46.9872C54.7857 47.5529 54.8759 48.0577 55.056 48.5006C55.2361 48.9434 55.5845 49.165 56.1011 49.165C56.3805 49.165 56.5682 49.1044 56.6643 48.9828C56.7197 48.9146 56.7477 48.8105 56.7477 48.6716V47.9553C56.7477 47.7495 56.6872 47.615 56.5648 47.5506C56.486 47.5108 56.3259 47.4891 56.0855 47.4843V47.3123H58.3313V47.4843C58.1051 47.4931 57.9558 47.5408 57.882 47.6257C57.8085 47.7107 57.7714 47.8704 57.7714 48.1043V48.9696C57.6264 49.0624 57.3916 49.155 57.0675 49.2478C56.7431 49.3405 56.3805 49.3876 55.9798 49.3876C55.2523 49.3876 54.6708 49.1499 54.2354 48.6748C53.83 48.2306 53.6279 47.6734 53.6279 47.0042C53.6275 46.3273 53.8375 45.7585 54.2577 45.2963Z" fill="#1B75B3"/>
<path d="M11.7317 55.8735C11.9106 55.8669 12.0386 55.8426 12.1154 55.8006C12.2456 55.7296 12.3105 55.5951 12.3105 55.3956V52.1081C12.3105 51.9105 12.2486 51.7779 12.1249 51.7097C12.0523 51.6681 11.921 51.6419 11.7314 51.6308V51.4585H14.0226V51.6308C13.7559 51.6397 13.5783 51.6782 13.4896 51.7463C13.4009 51.8145 13.3571 51.9821 13.3571 52.2508V55.4587C13.3571 55.6096 13.3949 55.7087 13.4704 55.7576C13.5464 55.8063 13.6941 55.8309 13.9135 55.8309C14.3086 55.8309 14.6395 55.7406 14.9074 55.5607C15.1747 55.3808 15.406 55.0297 15.6001 54.5082H15.7921L15.5263 56.0462H11.7314V55.8734H11.7317V55.8735Z" fill="#1B75B3"/>
<path d="M16.2861 55.8736C16.444 55.8625 16.571 55.7884 16.6667 55.6513C16.7286 55.5652 16.8173 55.3751 16.9322 55.0809L18.3884 51.3656H18.5706L20.0331 54.9319C20.1974 55.3319 20.32 55.5898 20.4009 55.7063C20.482 55.8218 20.5972 55.878 20.7466 55.8735V56.0459H18.6251V55.8735C18.8384 55.865 18.9785 55.8458 19.0458 55.8174C19.1129 55.7883 19.1468 55.716 19.1468 55.5982C19.1468 55.5452 19.1294 55.4647 19.0956 55.3564C19.0743 55.2923 19.0453 55.2147 19.009 55.1244L18.8423 54.7134H17.371C17.275 54.983 17.2131 55.1588 17.1854 55.2402C17.1279 55.4151 17.0992 55.5423 17.0992 55.6219C17.0992 55.719 17.162 55.7898 17.2879 55.8336C17.3625 55.858 17.4744 55.8712 17.624 55.8734V56.0459H16.2864V55.8734H16.2861V55.8736ZM18.7461 54.4448L18.1159 52.8744H18.0607L17.4691 54.4448H18.7461Z" fill="#1B75B3"/>
<path d="M21.1895 55.8735C21.4327 55.8669 21.5896 55.8189 21.6597 55.7296C21.7304 55.6403 21.7652 55.508 21.7652 55.3331V52.1182C21.5646 51.8858 21.4409 51.7495 21.3943 51.7087C21.3474 51.668 21.2834 51.6419 21.2024 51.6308V51.4585H22.5912L24.8439 54.2946H24.8762V52.3004C24.8762 52.0706 24.8356 51.9068 24.7549 51.8083C24.6741 51.71 24.5132 51.6511 24.2712 51.6309V51.4585H25.6793V51.6309C25.4748 51.6663 25.3373 51.7133 25.2685 51.7726C25.1987 51.8316 25.1645 51.9649 25.1645 52.1709V56.1715H24.9822L22.0989 52.5422H22.0539V55.2033C22.0539 55.4123 22.0815 55.5601 22.1374 55.6462C22.2248 55.7867 22.4038 55.8618 22.675 55.8728V56.0452H21.1902V55.8734H21.1895V55.8735Z" fill="#1B75B3"/>
<path d="M26.8702 52.0846C27.3054 51.6098 27.861 51.372 28.5372 51.372C28.8082 51.372 29.0783 51.4247 29.3467 51.5295C29.6155 51.6344 29.7831 51.6864 29.8493 51.6864C29.9196 51.6864 29.9763 51.6615 30.0186 51.6106C30.061 51.5598 30.0967 51.4824 30.1241 51.3785H30.3064V52.9661H30.1399C29.9821 52.6217 29.8212 52.3496 29.6569 52.1507C29.35 51.7839 29.002 51.6008 28.6137 51.6008C28.1913 51.6008 27.8832 51.7908 27.689 52.171C27.4949 52.5513 27.3977 53.0857 27.3977 53.7753C27.3977 54.3409 27.4879 54.8457 27.6684 55.2887C27.8484 55.7315 28.1968 55.9531 28.7133 55.9531C28.9929 55.9531 29.1806 55.8926 29.2766 55.771C29.3321 55.7028 29.3598 55.5987 29.3598 55.4597V54.7434C29.3598 54.5376 29.2991 54.4031 29.1776 54.3388C29.0986 54.2989 28.9386 54.2772 28.6979 54.2724V54.1004H30.9439V54.2724C30.7179 54.2812 30.5679 54.3289 30.4944 54.4139C30.421 54.4988 30.3838 54.6585 30.3838 54.8924V55.7576C30.2387 55.8505 30.004 55.943 29.6798 56.0358C29.3555 56.1286 28.9929 56.1757 28.5919 56.1757C27.8643 56.1757 27.2832 55.938 26.848 55.4629C26.4426 55.0187 26.2402 54.4616 26.2402 53.7923C26.2396 53.1155 26.4499 52.5467 26.8702 52.0846Z" fill="#1B75B3"/>
<path d="M33.6017 51.4583V51.6307C33.3478 51.6395 33.1784 51.6802 33.0927 51.7525C33.0077 51.8255 32.9647 51.9912 32.9647 52.2507V54.5255C32.9647 54.8708 33.0044 55.1376 33.0833 55.3258C33.2265 55.6752 33.5005 55.8501 33.9059 55.8501C34.4093 55.8501 34.7494 55.6569 34.9264 55.2699C35.0242 55.0574 35.0736 54.7601 35.0736 54.3771V52.3002C35.0736 52.0571 35.0304 51.8895 34.9442 51.7979C34.8578 51.7064 34.6888 51.6505 34.4371 51.6303V51.4579H35.8768V51.6303C35.6676 51.6722 35.5299 51.7237 35.4626 51.7847C35.3952 51.8453 35.362 51.9855 35.362 52.2039V54.3752C35.362 54.9519 35.227 55.3973 34.9586 55.7111C34.6897 56.0249 34.2673 56.1815 33.6914 56.1815C32.938 56.1815 32.4231 55.9485 32.1457 55.4816C31.9985 55.2338 31.925 54.9144 31.925 54.5229V52.2506C31.925 51.9956 31.8923 51.8352 31.8275 51.7689C31.7626 51.7036 31.6157 51.6571 31.3877 51.6306V51.4582H33.6017V51.4583Z" fill="#1B75B3"/>
<path d="M36.3154 55.8736C36.4732 55.8625 36.6003 55.7884 36.6966 55.6513C36.7583 55.5652 36.8468 55.3751 36.9623 55.0809L38.4181 51.3656H38.6008L40.063 54.9319C40.2273 55.3319 40.35 55.5898 40.4315 55.7063C40.5123 55.8218 40.6273 55.878 40.7767 55.8735V56.0459H38.6551V55.8735C38.8687 55.865 39.0089 55.8458 39.0762 55.8174C39.1434 55.7883 39.1768 55.716 39.1768 55.5982C39.1768 55.5452 39.1594 55.4647 39.1259 55.3564C39.1042 55.2923 39.0757 55.2147 39.0394 55.1244L38.8726 54.7134H37.4012C37.3049 54.983 37.2431 55.1588 37.2153 55.2402C37.1574 55.4151 37.129 55.5423 37.129 55.6219C37.129 55.719 37.1918 55.7898 37.3178 55.8336C37.3921 55.858 37.5041 55.8712 37.6537 55.8734V56.0459H36.316V55.8734H36.3154V55.8736ZM38.7757 54.4448L38.1454 52.8744H38.0903L37.4984 54.4448H38.7757Z" fill="#1B75B3"/>
<path d="M41.9844 52.0846C42.4199 51.6098 42.9752 51.372 43.6514 51.372C43.9223 51.372 44.1924 51.4247 44.4615 51.5295C44.7303 51.6344 44.8973 51.6864 44.9637 51.6864C45.0342 51.6864 45.0905 51.6615 45.1331 51.6106C45.1758 51.5598 45.2109 51.4824 45.2387 51.3785H45.4212V52.9661H45.2551C45.0973 52.6217 44.936 52.3496 44.7717 52.1507C44.4649 51.7839 44.1165 51.6008 43.7283 51.6008C43.3059 51.6008 42.9978 51.7908 42.8036 52.171C42.6094 52.5513 42.5123 53.0857 42.5123 53.7753C42.5123 54.3409 42.6024 54.8457 42.7829 55.2887C42.9628 55.7315 43.3111 55.9531 43.8277 55.9531C44.1071 55.9531 44.2947 55.8926 44.3908 55.771C44.4463 55.7028 44.4743 55.5987 44.4743 55.4597V54.7434C44.4743 54.5376 44.4137 54.4031 44.2918 54.3388C44.2128 54.2989 44.0526 54.2772 43.8121 54.2724V54.1004H46.0579V54.2724C45.8317 54.2812 45.6823 54.3289 45.6086 54.4139C45.5352 54.4988 45.4984 54.6585 45.4984 54.8924V55.7576C45.3529 55.8505 45.1183 55.943 44.7939 56.0358C44.47 56.1286 44.1073 56.1757 43.7063 56.1757C42.9789 56.1757 42.3974 55.938 41.9621 55.4629C41.5565 55.0187 41.3545 54.4616 41.3545 53.7923C41.3541 53.1155 41.564 52.5467 41.9844 52.0846Z" fill="#1B75B3"/>
<path d="M46.501 56.0457V55.8733C46.6887 55.8667 46.8218 55.8401 46.9008 55.7937C47.0228 55.7231 47.0833 55.5904 47.0833 55.3962V52.1081C47.0833 51.9105 47.0203 51.7779 46.8948 51.7097C46.8222 51.6681 46.6909 51.6419 46.501 51.6308V51.4587H50.277V52.8273H50.1172C50.0334 52.3897 49.8924 52.0905 49.6931 51.9292C49.4938 51.7678 49.1304 51.6871 48.6035 51.6871C48.403 51.6871 48.2756 51.7089 48.221 51.7518C48.1667 51.795 48.1394 51.8806 48.1394 52.0087V53.5799C48.5124 53.5842 48.7656 53.5142 48.898 53.3692C49.0301 53.2249 49.1317 52.9598 49.2018 52.5753H49.3683V54.8694H49.2018C49.1552 54.4829 49.0595 54.2106 48.9157 54.0524C48.7715 53.8946 48.5128 53.8157 48.1397 53.8157V55.46C48.1397 55.603 48.1753 55.7009 48.2469 55.753C48.3183 55.8051 48.4651 55.831 48.6871 55.831C49.1051 55.831 49.4466 55.747 49.7107 55.5791C49.9753 55.4115 50.2102 55.0965 50.415 54.6343H50.5972L50.3315 56.0464H46.501V56.0457Z" fill="#1B75B3"/>
</svg>
