<svg width="64" height="64" viewBox="0 0 64 64" fill="none" xmlns="http://www.w3.org/2000/svg">
<path d="M50.5405 16.2192L47.2116 53.8176L32.2479 58L17.3254 53.8234L14 16.2192H50.5405Z" fill="#264DE4"/>
<path d="M44.3619 51.4235L47.2067 19.294H32.2705V54.8032L44.3619 51.4235Z" fill="#2965F1"/>
<path d="M21.623 33.2408L22.033 37.8527H32.2699V33.2408H21.623Z" fill="#EBEBEB"/>
<path d="M32.2705 23.906H32.2546H20.7998L21.2156 28.518H32.2705V23.906Z" fill="#EBEBEB"/>
<path d="M32.2707 50.0171V45.2187L32.2507 45.224L27.156 43.8371L26.8304 40.1588H24.3548H22.2383L22.8792 47.4003L32.2497 50.023L32.2707 50.0171Z" fill="#EBEBEB"/>
<path d="M22.5996 6H28.1401V8.33594H24.9165V10.6719H28.1401V13.0078H22.5996V6Z" fill="black"/>
<path d="M29.248 6H34.7886V8.03125H31.565V8.4375H34.7886V13.1094H29.248V10.9766H32.4716V10.5703H29.248V6Z" fill="black"/>
<path d="M35.8965 6H41.437V8.03125H38.2134V8.4375H41.437V13.1094H35.8965V10.9766H39.1201V10.5703H35.8965V6Z" fill="black"/>
<path d="M37.8879 37.8527L37.3569 43.8342L32.2549 45.2225V50.0207L41.6328 47.4003L41.7016 46.6211L42.7766 34.4792L42.8882 33.2408L43.7141 23.906H32.2549V28.518H38.7008L38.2846 33.2408H32.2549V37.8527H37.8879Z" fill="white"/>
</svg>
