<svg width="64" height="64" viewBox="0 0 64 64" fill="none" xmlns="http://www.w3.org/2000/svg">
<path d="M17.3545 6H19.6367V8.2624H21.7404V6H24.0226V12.8467H21.7404V10.5645H19.6566V12.8467H17.3545V6ZM27.0392 8.28225H25.0248V6H31.3457V8.28225H29.3214V12.8467H27.0392V8.28225ZM32.3479 6H34.7393L36.2079 8.41125L37.6765 6H40.0679V12.8467H37.7856V9.45314L36.188 11.914L34.5904 9.45314V12.8467H32.3479V6ZM41.1991 6H43.4813V10.5843H46.7161V12.8467H41.1991" fill="black"/>
<path d="M17.2745 52.7365L14 15.9824H50L46.7255 52.7167L31.9702 56.8049" fill="#E44D26"/>
<path d="M32 53.6792V18.9989H46.7155L43.9074 50.355" fill="#F16529"/>
<path d="M20.6885 23.4939H32.0005V27.9988H25.63L26.0468 32.613H32.0005V37.108H21.9189L20.6885 23.4939ZM22.1174 39.3704H26.6422L26.9597 42.9724L32.0005 44.3219V49.0253L22.7524 46.4454" fill="#EBEBEB"/>
<path d="M43.2726 23.4939H31.9805V27.9988H42.8559L43.2726 23.4939ZM42.449 32.613H31.9805V37.1179H37.5373L37.0113 42.9724L31.9805 44.3219V49.0055L41.2087 46.4454" fill="white"/>
</svg>
