<svg width="64" height="64" viewBox="0 0 64 64" fill="none" xmlns="http://www.w3.org/2000/svg">
<path d="M46.5674 49.8664H46.3291V49.7332H46.9705V49.8664H46.7338V50.5314H46.5674V49.8664ZM47.8466 49.9012H47.8428L47.6068 50.5315H47.4988L47.2642 49.9012H47.2613V50.5315H47.1044V49.7333H47.3353L47.5528 50.2985L47.7695 49.7333H47.9996V50.5315H47.8464V49.9012H47.8466Z" fill="#5382A1"/>
<path d="M25.2413 33.5439C25.2413 33.5439 23.5838 34.5078 26.4209 34.8339C29.858 35.226 31.6146 35.1698 35.4023 34.4529C35.4023 34.4529 36.3981 35.0773 37.7888 35.6181C29.2978 39.2572 18.572 35.4074 25.2413 33.5439Z" fill="#5382A1"/>
<path d="M24.2036 28.795C24.2036 28.795 22.3445 30.1711 25.1837 30.4648C28.8553 30.8436 31.7549 30.8746 36.7722 29.9084C36.7722 29.9084 37.4662 30.612 38.5574 30.9967C28.2913 33.9987 16.8566 31.2335 24.2036 28.795Z" fill="#5382A1"/>
<path d="M32.9502 20.7394C35.0424 23.1482 32.4005 25.3157 32.4005 25.3157C32.4005 25.3157 37.7129 22.5733 35.2732 19.1392C32.9945 15.9366 31.2471 14.3454 40.7069 8.85901C40.7069 8.85901 25.8581 12.5676 32.9502 20.7394Z" fill="#F8981D"/>
<path d="M44.1804 37.0561C44.1804 37.0561 45.407 38.0667 42.8296 38.8486C37.9285 40.3333 22.4306 40.7817 18.1254 38.9078C16.5777 38.2345 19.48 37.3002 20.3929 37.1041C21.345 36.8977 21.8891 36.9361 21.8891 36.9361C20.168 35.7237 10.7645 39.3168 17.1126 40.3458C34.4247 43.1534 48.671 39.0816 44.1804 37.0561Z" fill="#5382A1"/>
<path d="M26.0382 23.8747C26.0382 23.8747 18.155 25.7471 23.2466 26.427C25.3964 26.7148 29.682 26.6497 33.6739 26.3152C36.9363 26.04 40.2122 25.4549 40.2122 25.4549C40.2122 25.4549 39.0618 25.9476 38.2296 26.5159C30.2243 28.6212 14.7596 27.6418 19.2117 25.4882C22.9769 23.6682 26.0382 23.8747 26.0382 23.8747Z" fill="#5382A1"/>
<path d="M40.1802 31.7791C48.3179 27.5504 44.5553 23.4867 41.9291 24.0342C41.2854 24.1682 40.9984 24.2842 40.9984 24.2842C40.9984 24.2842 41.2374 23.9099 41.6938 23.7479C46.8892 21.9213 50.8849 29.1351 40.0166 31.9922C40.0166 31.9923 40.1425 31.8797 40.1802 31.7791Z" fill="#5382A1"/>
<path d="M35.2734 0C35.2734 0 39.7802 4.50831 30.9989 11.4408C23.9572 17.0019 29.3932 20.1726 30.996 23.7954C26.8857 20.0868 23.8692 16.8222 25.8929 13.7838C28.8632 9.32362 37.0918 7.16118 35.2734 0Z" fill="#F8981D"/>
<path d="M26.8382 43.2381C34.6494 43.7381 46.6444 42.9607 46.9284 39.2646C46.9284 39.2646 46.3824 40.6658 40.4729 41.7785C33.8059 43.0332 25.5831 42.8867 20.7061 42.0826C20.7062 42.0825 21.7044 42.9089 26.8382 43.2381Z" fill="#5382A1"/>
<path d="M25.5581 57.3607C24.8212 57.9999 24.0429 58.3587 23.3445 58.3587C22.3477 58.3587 21.8091 57.7609 21.8091 56.8022C21.8091 55.7651 22.3861 55.0068 24.7013 55.0068H25.558V57.3607H25.5581ZM27.5913 59.6548V52.5536C27.5913 50.7396 26.5567 49.5425 24.0621 49.5425C22.6058 49.5425 21.3301 49.9021 20.2933 50.3608L20.5925 51.6178C21.4089 51.3181 22.4656 51.0392 23.5028 51.0392C24.9399 51.0392 25.5581 51.6178 25.5581 52.814V53.7115H24.8408C21.3494 53.7115 19.7744 55.0668 19.7744 57.1011C19.7744 58.8567 20.8123 59.8546 22.7665 59.8546C24.0227 59.8546 24.9604 59.336 25.837 58.577L25.9961 59.6549H27.5913V59.6548Z" fill="#5382A1"/>
<path d="M34.377 59.6547H31.8411L28.7891 49.7222H31.0036L32.8974 55.8248L33.3184 57.6601C34.2765 55.0065 34.9541 52.3144 35.293 49.7222H37.4472C36.8701 52.9929 35.8315 56.5829 34.377 59.6547Z" fill="#5382A1"/>
<path d="M44.1045 57.3607C43.3662 57.9999 42.5866 58.3587 41.8882 58.3587C40.8931 58.3587 40.3531 57.7609 40.3531 56.8022C40.3531 55.7651 40.9315 55.0068 43.2464 55.0068H44.1045V57.3607ZM46.1375 59.6548V52.5536C46.1375 50.7396 45.1003 49.5425 42.6087 49.5425C41.1513 49.5425 39.8751 49.9021 38.8388 50.3608L39.1376 51.6178C39.9543 51.3181 41.013 51.0392 42.0494 51.0392C43.4854 51.0392 44.1045 51.6178 44.1045 52.814V53.7115H43.3861C39.8936 53.7115 38.3193 55.0668 38.3193 57.1011C38.3193 58.8567 39.3564 59.8546 41.3103 59.8546C42.5672 59.8546 43.5045 59.336 44.3826 58.577L44.5423 59.6549H46.1375V59.6548Z" fill="#5382A1"/>
<path d="M17.5446 61.3415C16.965 62.1878 16.0288 62.8573 15.0039 63.2361L14 62.0547C14.7801 61.6545 15.4492 61.008 15.76 60.4058C16.0289 59.8702 16.1402 59.18 16.1402 57.5294V46.1899H18.3004V57.374C18.3003 59.5807 18.1239 60.4722 17.5446 61.3415Z" fill="#5382A1"/>
</svg>
