<svg width="64" height="64" viewBox="0 0 64 64" fill="none" xmlns="http://www.w3.org/2000/svg">
<rect x="10" y="10" width="44" height="44" fill="#FFCA28"/>
<path d="M36.7143 46.5949L39.9538 44.4513C40.2077 45.2489 41.8154 47.1432 43.8462 47.1432C45.8769 47.1432 46.8198 46.034 46.8198 45.2987C46.8198 43.2949 44.7461 42.5883 43.7502 42.249C43.5878 42.1937 43.4541 42.1481 43.3626 42.1083C43.3158 42.0879 43.2448 42.0608 43.1538 42.026C42.0461 41.6028 37.9593 40.0414 37.9593 35.5155C37.9593 30.5304 42.7703 29.9571 43.8582 29.9571C44.57 29.9571 47.9923 30.0444 49.6967 33.2473L46.5538 35.4407C45.8648 34.0449 44.7201 33.5838 44.0154 33.5838C42.2747 33.5838 41.9121 34.8599 41.9121 35.4407C41.9121 37.0706 43.8033 37.8012 45.4001 38.418C45.8179 38.5794 46.2155 38.733 46.5538 38.8929C48.2945 39.7155 50.8571 41.0614 50.8571 45.2987C50.8571 47.4211 49.077 50.8571 44.5956 50.8571C38.5758 50.8571 36.9802 47.2429 36.7143 46.5949Z" fill="#3E3E3E"/>
<path d="M21 47.0205L24.3765 44.878C24.6411 45.6753 25.6691 47.1451 27.1608 47.1451C28.6525 47.1451 29.416 45.613 29.416 44.878V30.4286H33.5686V44.878C33.6358 46.8711 32.5305 50.8571 27.6522 50.8571C23.167 50.8571 21.3024 48.1915 21 47.0205Z" fill="#3E3E3E"/>
</svg>
