<svg width="64" height="64" viewBox="0 0 64 64" fill="none" xmlns="http://www.w3.org/2000/svg">
<path d="M31.8414 10C20.6715 10 21.369 14.844 21.369 14.844L21.3814 19.8622H32.0406V21.369H17.1476C17.1476 21.369 10 20.5584 10 31.8289C10 43.0995 16.2386 42.6998 16.2386 42.6998H19.9619V37.4698C19.9619 37.4698 19.7612 31.2312 26.1009 31.2312C32.4406 31.2312 36.6729 31.2312 36.6729 31.2312C36.6729 31.2312 42.6127 31.3272 42.6127 25.4907C42.6127 19.6542 42.6127 15.8401 42.6127 15.8401C42.6127 15.8401 43.5145 10 31.8414 10ZM25.9639 13.3746C27.0244 13.3746 27.8815 14.2317 27.8815 15.2922C27.8815 16.3528 27.0244 17.2099 25.9639 17.2099C24.9034 17.2099 24.0462 16.3528 24.0462 15.2922C24.0462 14.2317 24.9034 13.3746 25.9639 13.3746Z" fill="url(#paint0_linear_209_3496)"/>
<path d="M32.1585 53.771C43.3284 53.771 42.6309 48.927 42.6309 48.927L42.6185 43.9087H31.9593V42.402H46.8523C46.8523 42.402 53.9999 43.2126 53.9999 31.942C53.9999 20.6715 47.7613 21.0711 47.7613 21.0711H44.038V26.3011C44.038 26.3011 44.2387 32.5397 37.899 32.5397C31.5593 32.5397 27.327 32.5397 27.327 32.5397C27.327 32.5397 21.3872 32.4437 21.3872 38.2803C21.3872 44.1168 21.3872 47.9308 21.3872 47.9308C21.3872 47.9308 20.4854 53.771 32.1585 53.771ZM38.036 50.3964C36.9755 50.3964 36.1184 49.5392 36.1184 48.4787C36.1184 47.4182 36.9755 46.5611 38.036 46.5611C39.0965 46.5611 39.9537 47.4182 39.9537 48.4787C39.9537 49.5392 39.0965 50.3964 38.036 50.3964Z" fill="url(#paint1_linear_209_3496)"/>
<defs>
<linearGradient id="paint0_linear_209_3496" x1="14.2285" y1="13.826" x2="35.9852" y2="35.6555" gradientUnits="userSpaceOnUse">
<stop stop-color="#387EB8"/>
<stop offset="1" stop-color="#366994"/>
</linearGradient>
<linearGradient id="paint1_linear_209_3496" x1="27.6122" y1="27.713" x2="50.979" y2="50.0996" gradientUnits="userSpaceOnUse">
<stop stop-color="#FFE052"/>
<stop offset="1" stop-color="#FFC331"/>
</linearGradient>
</defs>
</svg>
