<svg width="64" height="64" viewBox="0 0 64 64" fill="none" xmlns="http://www.w3.org/2000/svg">
<path d="M49.7031 10H14.2969C11.9238 10 10 11.9238 10 14.2969V49.7031C10 52.0762 11.9238 54 14.2969 54H49.7031C52.0762 54 54 52.0762 54 49.7031V14.2969C54 11.9238 52.0762 10 49.7031 10Z" fill="#3178C6"/>
<path fill-rule="evenodd" clip-rule="evenodd" d="M37.2422 44.9765V49.2734C37.9383 49.6343 38.7891 49.9007 39.7344 50.0812C40.6797 50.2617 41.7109 50.3476 42.7422 50.3476C43.7734 50.3476 44.7188 50.2531 45.6641 50.0554C46.6094 49.8578 47.3828 49.5312 48.0703 49.1101C48.7664 48.6547 49.3594 48.0789 49.7031 47.3054C50.0469 46.532 50.3133 45.6726 50.3133 44.5554C50.3133 43.7734 50.193 43.0945 49.9609 42.4929C49.7289 41.8914 49.3938 41.3757 48.9297 40.9461C48.4914 40.4906 47.9844 40.0867 47.3828 39.7429C46.7812 39.3992 46.0938 39.0382 45.3203 38.7117C44.7531 38.4797 44.2891 38.2562 43.7734 38.0328C43.3266 37.8093 42.9398 37.5859 42.6562 37.3625C42.3383 37.1304 42.0977 36.8898 41.9258 36.6406C41.7539 36.3828 41.668 36.0992 41.668 35.7812C41.668 35.489 41.7445 35.2226 41.9 34.982C42.0555 34.7414 42.2695 34.5437 42.5445 34.3718C42.8195 34.2 43.1633 34.0711 43.5758 33.9765C43.9797 33.882 44.4266 33.839 44.9508 33.839C45.3117 33.839 45.6898 33.8657 46.068 33.9198C46.4633 33.974 46.8672 34.0573 47.2711 34.169C47.675 34.2807 48.0703 34.4183 48.4742 34.5901C48.8523 34.762 49.2047 34.9597 49.5055 35.1831V31.144C48.8523 30.8948 48.1305 30.7057 47.357 30.5854C46.5836 30.4651 45.7242 30.405 44.693 30.405C43.6617 30.405 42.7164 30.5167 41.7711 30.7315C40.8258 30.9464 40.0523 31.2901 39.3648 31.7628C38.6688 32.2268 38.1617 32.794 37.732 33.5675C37.3281 34.2893 37.1305 35.1143 37.1305 36.1456C37.1305 37.4347 37.5 38.5518 38.2477 39.4112C38.9867 40.3565 40.1383 41.044 41.5992 41.7315C42.1922 41.9722 42.7164 42.2128 43.232 42.4448C43.7477 42.6768 44.1773 42.9175 44.5211 43.1667C44.8906 43.4159 45.1828 43.6909 45.3805 43.9831C45.5953 44.2753 45.707 44.619 45.707 45.0143C45.707 45.2893 45.64 45.5472 45.5094 45.7878C45.3788 46.0284 45.1742 46.2347 44.8992 46.4065C44.6242 46.5784 44.2891 46.7159 43.868 46.819C43.4641 46.9136 43.0086 46.9651 42.407 46.9651C41.4617 46.9651 40.5164 46.8018 39.657 46.4753C38.7117 46.1487 37.8523 45.6589 37.0789 45.0143L37.2422 44.9765ZM30.0234 34.4062H35.5234V30.8828H20.1406V34.4062H25.6406V50.1328H30.0234V34.4062Z" fill="white"/>
</svg>
