<svg width="21" height="20" viewBox="0 0 21 20" fill="none" xmlns="http://www.w3.org/2000/svg">
<g clip-path="url(#clip0_400_7371)">
<path d="M16.7689 6.66675H18.4355C18.6566 6.66675 18.8685 6.75455 19.0248 6.91083C19.1811 7.06711 19.2689 7.27907 19.2689 7.50008V17.5001C19.2689 17.7211 19.1811 17.9331 19.0248 18.0893C18.8685 18.2456 18.6566 18.3334 18.4355 18.3334H11.7689C11.5479 18.3334 11.3359 18.2456 11.1796 18.0893C11.0233 17.9331 10.9355 17.7211 10.9355 17.5001V16.6667H4.26888C4.04787 16.6667 3.8359 16.579 3.67962 16.4227C3.52334 16.2664 3.43555 16.0544 3.43555 15.8334V2.50008C3.43555 2.27907 3.52334 2.06711 3.67962 1.91083C3.8359 1.75455 4.04787 1.66675 4.26888 1.66675H15.9355C16.1566 1.66675 16.3685 1.75455 16.5248 1.91083C16.6811 2.06711 16.7689 2.27907 16.7689 2.50008V6.66675ZM15.1022 6.66675V3.33341H5.10221V15.0001H10.9355V7.50008C10.9355 7.27907 11.0233 7.06711 11.1796 6.91083C11.3359 6.75455 11.5479 6.66675 11.7689 6.66675H15.1022ZM12.6022 8.33341V16.6667H17.6022V8.33341H12.6022Z" fill="#44C3EB"/>
</g>
<defs>
<clipPath id="clip0_400_7371">
<rect width="20" height="20" fill="white" transform="translate(0.933594)"/>
</clipPath>
</defs>
</svg>
