<svg width="24" height="24" viewBox="0 0 24 24" fill="none" xmlns="http://www.w3.org/2000/svg">
<path d="M11.8821 15.2514C11.8961 15.2691 11.914 15.2834 11.9344 15.2932C11.9548 15.303 11.9773 15.3081 12 15.3081C12.0227 15.3081 12.0452 15.303 12.0656 15.2932C12.086 15.2834 12.1039 15.2691 12.1179 15.2514L14.2142 12.6348C14.2909 12.5388 14.2217 12.3966 14.0963 12.3966H12.7094V6.14773C12.7094 6.06648 12.642 6 12.5596 6H11.4366C11.3543 6 11.2869 6.06648 11.2869 6.14773V12.3947H9.90374C9.77834 12.3947 9.70909 12.5369 9.78583 12.633L11.8821 15.2514ZM18.8503 14.6051H17.7273C17.6449 14.6051 17.5775 14.6716 17.5775 14.7528V17.5966H6.42246V14.7528C6.42246 14.6716 6.35508 14.6051 6.27273 14.6051H5.14973C5.06738 14.6051 5 14.6716 5 14.7528V18.4091C5 18.7359 5.26765 19 5.59893 19H18.4011C18.7324 19 19 18.7359 19 18.4091V14.7528C19 14.6716 18.9326 14.6051 18.8503 14.6051Z" fill="white"/>
</svg>
