<svg width="20" height="20" viewBox="0 0 20 20" fill="none" xmlns="http://www.w3.org/2000/svg">
<g clip-path="url(#clip0_400_7305)">
<path d="M5.83268 4.16659V1.66659C5.83268 1.44557 5.92048 1.23361 6.07676 1.07733C6.23304 0.921049 6.445 0.833252 6.66602 0.833252H13.3327C13.5537 0.833252 13.7657 0.921049 13.9219 1.07733C14.0782 1.23361 14.166 1.44557 14.166 1.66659V4.16659H17.4993C17.7204 4.16659 17.9323 4.25438 18.0886 4.41066C18.2449 4.56694 18.3327 4.7789 18.3327 4.99992V16.6666C18.3327 16.8876 18.2449 17.0996 18.0886 17.2558C17.9323 17.4121 17.7204 17.4999 17.4993 17.4999H2.49935C2.27834 17.4999 2.06637 17.4121 1.91009 17.2558C1.75381 17.0996 1.66602 16.8876 1.66602 16.6666V4.99992C1.66602 4.7789 1.75381 4.56694 1.91009 4.41066C2.06637 4.25438 2.27834 4.16659 2.49935 4.16659H5.83268ZM3.33268 13.3333V15.8333H16.666V13.3333H3.33268ZM3.33268 11.6666H16.666V5.83325H3.33268V11.6666ZM7.49935 2.49992V4.16659H12.4993V2.49992H7.49935ZM9.16602 9.16659H10.8327V10.8333H9.16602V9.16659Z" fill="white"/>
</g>
<defs>
<clipPath id="clip0_400_7305">
<rect width="20" height="20" fill="white"/>
</clipPath>
</defs>
</svg>
