<svg width="24" height="24" viewBox="0 0 24 24" fill="none" xmlns="http://www.w3.org/2000/svg">
<rect width="24" height="24" rx="12" fill="#1275B1"/>
<path d="M8.11725 7.18186C8.11725 7.9829 7.42292 8.63227 6.56644 8.63227C5.70995 8.63227 5.01562 7.9829 5.01562 7.18186C5.01562 6.38082 5.70995 5.73145 6.56644 5.73145C7.42292 5.73145 8.11725 6.38082 8.11725 7.18186Z" fill="white"/>
<path d="M5.2277 9.69839H7.87866V17.7314H5.2277V9.69839Z" fill="white"/>
<path d="M12.1467 9.69839H9.49574V17.7314H12.1467C12.1467 17.7314 12.1467 15.2025 12.1467 13.6213C12.1467 12.6723 12.4708 11.719 13.7638 11.719C15.2251 11.719 15.2163 12.961 15.2095 13.9232C15.2005 15.181 15.2218 16.4645 15.2218 17.7314H17.8728V13.4918C17.8503 10.7846 17.1449 9.53723 14.8242 9.53723C13.446 9.53723 12.5917 10.1629 12.1467 10.729V9.69839Z" fill="white"/>
</svg>
