<svg width="24" height="24" viewBox="0 0 24 24" fill="none" xmlns="http://www.w3.org/2000/svg">
<path d="M18.5 7H5.5C5.22344 7 5 7.22344 5 7.5V17.5C5 17.7766 5.22344 18 5.5 18H18.5C18.7766 18 19 17.7766 19 17.5V7.5C19 7.22344 18.7766 7 18.5 7ZM17.875 8.73125V16.875H6.125V8.73125L5.69375 8.39531L6.30781 7.60625L6.97656 8.12656H17.025L17.6938 7.60625L18.3078 8.39531L17.875 8.73125ZM17.025 8.125L12 12.0312L6.975 8.125L6.30625 7.60469L5.69219 8.39375L6.12344 8.72969L11.4609 12.8797C11.6144 12.9989 11.8033 13.0637 11.9977 13.0637C12.192 13.0637 12.3809 12.9989 12.5344 12.8797L17.875 8.73125L18.3062 8.39531L17.6922 7.60625L17.025 8.125Z" fill="white"/>
</svg>
