<svg width="80" height="80" viewBox="0 0 80 80" fill="none" xmlns="http://www.w3.org/2000/svg">
<path d="M35 29.1666C35 28.5036 34.7366 27.8677 34.2678 27.3989C33.7989 26.93 33.163 26.6666 32.5 26.6666C31.837 26.6666 31.2011 26.93 30.7322 27.3989C30.2634 27.8677 30 28.5036 30 29.1666V50.8333C30 51.4963 30.2634 52.1322 30.7322 52.6011C31.2011 53.0699 31.837 53.3333 32.5 53.3333C33.163 53.3333 33.7989 53.0699 34.2678 52.6011C34.7366 52.1322 35 51.4963 35 50.8333V29.1666ZM47.5 26.6666C48.163 26.6666 48.7989 26.93 49.2678 27.3989C49.7366 27.8677 50 28.5036 50 29.1666V50.8333C50 51.4963 49.7366 52.1322 49.2678 52.6011C48.7989 53.0699 48.163 53.3333 47.5 53.3333C46.837 53.3333 46.2011 53.0699 45.7322 52.6011C45.2634 52.1322 45 51.4963 45 50.8333V29.1666C45 28.5036 45.2634 27.8677 45.7322 27.3989C46.2011 26.93 46.837 26.6666 47.5 26.6666Z" fill="white"/>
<path fill-rule="evenodd" clip-rule="evenodd" d="M40.0003 4.16663C20.2103 4.16663 4.16699 20.21 4.16699 40C4.16699 59.79 20.2103 75.8333 40.0003 75.8333C59.7903 75.8333 75.8337 59.79 75.8337 40C75.8337 20.21 59.7903 4.16663 40.0003 4.16663ZM9.16699 40C9.16699 31.8225 12.4155 23.9799 18.1979 18.1975C23.9802 12.4151 31.8228 9.16663 40.0003 9.16663C48.1778 9.16663 56.0204 12.4151 61.8028 18.1975C67.5852 23.9799 70.8337 31.8225 70.8337 40C70.8337 48.1775 67.5852 56.02 61.8028 61.8024C56.0204 67.5848 48.1778 70.8333 40.0003 70.8333C31.8228 70.8333 23.9802 67.5848 18.1979 61.8024C12.4155 56.02 9.16699 48.1775 9.16699 40Z" fill="white"/>
</svg>
