<svg width="80" height="80" viewBox="0 0 80 80" fill="none" xmlns="http://www.w3.org/2000/svg">
<path fill-rule="evenodd" clip-rule="evenodd" d="M32.9937 21.2133C32.6152 20.9764 32.1802 20.8451 31.7338 20.8332C31.2875 20.8212 30.8461 20.9291 30.4555 21.1454C30.0649 21.3618 29.7394 21.6789 29.5128 22.0636C29.2862 22.4484 29.1668 22.8868 29.167 23.3333V56.6667C29.1668 57.1132 29.2862 57.5516 29.5128 57.9363C29.7394 58.3211 30.0649 58.6381 30.4555 58.8545C30.8461 59.0709 31.2875 59.1787 31.7338 59.1668C32.1802 59.1549 32.6152 59.0236 32.9937 58.7867L59.6603 42.12C60.0199 41.8953 60.3164 41.5828 60.5219 41.2119C60.7275 40.8411 60.8353 40.424 60.8353 40C60.8353 39.576 60.7275 39.1589 60.5219 38.7881C60.3164 38.4172 60.0199 38.1047 59.6603 37.88L32.9937 21.2133ZM53.617 40L34.167 52.1567V27.8433L53.617 40Z" fill="white"/>
<path fill-rule="evenodd" clip-rule="evenodd" d="M40.0003 4.16669C20.2103 4.16669 4.16699 20.21 4.16699 40C4.16699 59.79 20.2103 75.8334 40.0003 75.8334C59.7903 75.8334 75.8337 59.79 75.8337 40C75.8337 20.21 59.7903 4.16669 40.0003 4.16669ZM9.16699 40C9.16699 31.8225 12.4155 23.9799 18.1979 18.1976C23.9802 12.4152 31.8228 9.16669 40.0003 9.16669C48.1778 9.16669 56.0204 12.4152 61.8028 18.1976C67.5852 23.9799 70.8337 31.8225 70.8337 40C70.8337 48.1775 67.5852 56.0201 61.8028 61.8025C56.0204 67.5849 48.1778 70.8334 40.0003 70.8334C31.8228 70.8334 23.9802 67.5849 18.1979 61.8025C12.4155 56.0201 9.16699 48.1775 9.16699 40Z" fill="white"/>
</svg>
