<svg width="24" height="24" viewBox="0 0 24 24" fill="none" xmlns="http://www.w3.org/2000/svg">
<path d="M18.001 19.5002H16.501V18.0002C16.501 17.4035 16.2639 16.8312 15.842 16.4093C15.42 15.9873 14.8477 15.7502 14.251 15.7502H9.75098C9.15424 15.7502 8.58194 15.9873 8.15999 16.4093C7.73803 16.8312 7.50098 17.4035 7.50098 18.0002V19.5002H6.00098V18.0002C6.00098 17.0057 6.39606 16.0519 7.09933 15.3486C7.80259 14.6453 8.75641 14.2502 9.75098 14.2502H14.251C15.2455 14.2502 16.1994 14.6453 16.9026 15.3486C17.6059 16.0519 18.001 17.0057 18.001 18.0002V19.5002ZM12.001 12.7502C11.41 12.7502 10.8249 12.6338 10.2789 12.4077C9.73294 12.1816 9.23686 11.8501 8.819 11.4322C8.40113 11.0144 8.06966 10.5183 7.84352 9.97232C7.61737 9.42635 7.50098 8.84119 7.50098 8.25024C7.50098 7.6593 7.61737 7.07413 7.84352 6.52817C8.06966 5.9822 8.40113 5.48613 8.819 5.06826C9.23686 4.6504 9.73294 4.31893 10.2789 4.09279C10.8249 3.86664 11.41 3.75024 12.001 3.75024C13.1945 3.75024 14.339 4.22435 15.183 5.06826C16.0269 5.91218 16.501 7.05677 16.501 8.25024C16.501 9.44372 16.0269 10.5883 15.183 11.4322C14.339 12.2761 13.1945 12.7502 12.001 12.7502ZM12.001 11.2502C12.7966 11.2502 13.5597 10.9342 14.1223 10.3716C14.6849 9.80896 15.001 9.04589 15.001 8.25024C15.001 7.45459 14.6849 6.69153 14.1223 6.12892C13.5597 5.56631 12.7966 5.25024 12.001 5.25024C11.2053 5.25024 10.4423 5.56631 9.87966 6.12892C9.31705 6.69153 9.00098 7.45459 9.00098 8.25024C9.00098 9.04589 9.31705 9.80896 9.87966 10.3716C10.4423 10.9342 11.2053 11.2502 12.001 11.2502Z" fill="white"/>
</svg>
